<svg width="180" height="88" viewBox="0 0 180 88" fill="none" xmlns="http://www.w3.org/2000/svg">
<path fill-rule="evenodd" clip-rule="evenodd" d="M151.276 1.69152C151.126 1.30965 150.765 1.04503 150.354 1.04503H143.182C142.865 1.04503 142.706 1.1717 142.706 1.42504L142.695 9.25515C142.694 9.76985 141.906 9.94587 141.648 9.5002C139.999 6.58681 137.779 4.27509 134.988 2.56506C132.198 0.855019 129.058 0 125.57 0C122.081 0 118.91 0.886686 116.056 2.66006C113.265 4.3701 111.045 6.68181 109.396 9.59521C107.811 12.4453 107.018 15.612 107.018 19.0954L107.003 23.8691C106.999 25.0297 105.312 25.1717 105.114 24.0282L101.193 1.42504C101.13 1.1717 100.971 1.04503 100.717 1.04503H86.9225C86.6688 1.04503 86.5103 1.1717 86.4469 1.42504L80.2419 35.7538C80.0361 36.8921 78.3576 36.7445 78.3543 35.5878L78.2547 1.42504C78.2547 1.1717 78.1278 1.04503 77.8741 1.04503H66.1723C65.9399 1.04503 65.7342 1.15126 65.5551 1.36372C65.5215 1.40356 65.4874 1.44312 65.4497 1.47912L57.5063 9.06257C57.1385 9.41368 56.5592 9.41368 56.1914 9.06257L48.248 1.47911C48.2103 1.44312 48.1762 1.40356 48.1426 1.36372C47.9635 1.15126 47.7577 1.04503 47.5254 1.04503H35.9187C35.665 1.04503 35.5381 1.1717 35.5381 1.42504L35.5155 9.18118C35.5142 9.62668 34.8632 9.78492 34.6299 9.40521C32.9808 6.55515 30.7293 4.30677 27.8751 2.66006C25.0845 0.950027 22.0084 0.0950079 18.6469 0.0950079C15.3488 0.0950079 12.2727 0.91836 9.41857 2.56506C6.62788 4.21176 4.3763 6.46015 2.66384 9.31021C0.95137 12.0969 0.095137 15.2637 0.095137 18.8104C0.095137 22.6738 0.919658 26.1572 2.5687 29.2606C4.28117 32.3007 6.88158 34.8341 10.3699 36.8608C12.2727 37.9375 14.3023 39.0775 16.4587 40.2809C18.6151 41.4842 20.2008 42.3709 21.2156 42.9409C24.2599 44.651 25.7821 46.6777 25.7821 49.0211C25.7821 51.0478 25.0845 52.8212 23.6891 54.3412C22.2938 55.8612 20.613 56.6212 18.6469 56.6212C16.6807 56.6212 14.9999 55.8929 13.6046 54.4362C12.2093 52.9162 11.5116 51.1111 11.5116 49.0211V44.651C11.5116 44.3343 11.3847 44.176 11.131 44.176H0.475685C0.158562 44.176 0 44.3343 0 44.651V49.0211C0 52.5045 0.824521 55.7029 2.47356 58.6163C4.18603 61.4664 6.43761 63.7781 9.22829 65.5514C12.0824 67.2615 15.2219 68.1165 18.6469 68.1165C22.0718 68.1165 25.1796 67.2931 27.9703 65.6464C30.8244 63.9364 33.076 61.6563 34.725 58.8063C34.8948 58.5174 35.3714 58.635 35.3704 58.9701L35.3479 66.6915C35.3479 67.0081 35.4747 67.1665 35.7284 67.1665H46.4789C46.7326 67.1665 46.8595 67.0081 46.8595 66.6915L46.9503 20.4197C46.9519 19.5901 47.943 19.161 48.5506 19.7269L56.203 26.8541C56.5672 27.1933 57.1317 27.1947 57.4975 26.8572L65.2455 19.7097C65.8542 19.1482 66.8409 19.5781 66.8425 20.4056L66.9334 66.6915C66.9334 67.0081 67.0602 67.1665 67.3139 67.1665H85.5906C85.8443 67.1665 86.0029 67.0081 86.0663 66.6915L86.9908 60.5648C87.061 60.1 87.4609 59.7563 87.9316 59.7563H99.2327C99.7034 59.7563 100.103 60.1 100.173 60.5648L101.098 66.6915C101.161 67.0081 101.32 67.1665 101.574 67.1665H112.134C112.451 67.1665 112.578 67.0081 112.514 66.6915L112.248 65.1564C112.083 64.2052 113.38 63.5525 114.129 64.1629C114.738 64.6591 115.38 65.122 116.056 65.5514C118.91 67.2615 122.081 68.1165 125.57 68.1165C129.058 68.1165 132.198 67.2615 134.988 65.5514C137.779 63.7781 139.999 61.4347 141.648 58.5213C141.895 58.1017 142.623 58.2712 142.623 58.7577L142.611 66.6915C142.611 67.0081 142.738 67.1665 142.992 67.1665H153.742C153.996 67.1665 154.123 67.0081 154.123 66.6915V60.7538C154.123 60.2292 154.549 59.8038 155.074 59.8038H167.442C167.967 59.8038 168.393 60.2292 168.393 60.7538V66.6915C168.393 67.0081 168.552 67.1665 168.869 67.1665H179.524C179.841 67.1665 180 67.0081 180 66.6915L179.902 32.9701C179.901 32.6661 179.753 32.3828 179.513 32.1955C176.821 30.0906 175.007 26.9162 174.714 23.3125C174.674 22.8289 174.305 22.43 173.826 22.3523C172.46 22.1309 171.167 21.6903 169.986 21.0679C169.296 20.7043 168.393 21.1705 168.393 21.9496V42.941C168.393 43.4656 167.967 43.891 167.442 43.891H155.076C154.55 43.891 154.124 43.4643 154.125 42.9388L154.206 6.50682C154.207 6.25033 154.102 6.00574 153.925 5.82075C152.79 4.6411 151.883 3.24114 151.276 1.69152ZM133.086 43.986H141.694C142.219 43.986 142.645 43.5615 142.646 43.0373L142.667 28.122C142.668 27.5968 142.242 27.1706 141.716 27.1706H133.086C132.832 27.1706 132.705 27.0439 132.705 26.7906V19.0954C132.705 17.0054 132.007 15.2003 130.612 13.6803C129.28 12.1603 127.599 11.4002 125.57 11.4002C123.286 11.4002 121.542 12.1919 120.337 13.7753C119.132 15.2953 118.53 17.0687 118.53 19.0954V48.7361C118.53 51.0794 119.196 52.9795 120.527 54.4362C121.923 55.8929 123.604 56.6212 125.57 56.6212C127.599 56.6212 129.28 55.8296 130.612 54.2462C132.007 52.5995 132.705 50.7628 132.705 48.7361V44.366C132.705 44.1126 132.832 43.986 133.086 43.986ZM35.4609 27.9334C35.4624 27.4076 35.036 26.9806 34.5095 26.9806H26.1627C25.909 26.9806 25.7821 26.8539 25.7821 26.6006L25.687 18.8104C25.687 16.5937 24.9893 14.7887 23.594 13.3953C22.1986 12.0019 20.5496 11.3053 18.6469 11.3053C16.6807 11.3053 14.9999 12.0653 13.6046 13.5853C12.2093 15.042 11.5116 16.7837 11.5116 18.8104C11.5116 20.9005 11.9556 22.6422 12.8435 24.0355C13.7314 25.4289 15.3488 26.7589 17.6955 28.0256C18.0126 28.2156 18.6151 28.564 19.5031 29.0706C20.4545 29.514 21.4693 30.0523 22.5475 30.6857C23.6257 31.2557 24.5771 31.7624 25.4016 32.2057C26.2895 32.649 26.8286 32.9341 27.0189 33.0607C30.1902 34.8341 32.6954 37.0191 34.5347 39.6159C34.7948 39.974 35.4263 39.7997 35.4276 39.3573L35.4609 27.9334ZM89.2351 42.7601C89.1213 43.3464 89.571 43.891 90.1691 43.891H97.0046C97.5996 43.891 98.0485 43.3518 97.94 42.7677L94.2481 22.8955C94.1419 22.2418 93.2004 22.2422 93.0916 22.8955L89.2351 42.7601Z" fill="#FF8B20"/>
<path d="M36.3589 87.848C36.2955 87.848 36.2384 87.829 36.1877 87.791C36.1496 87.7404 36.1306 87.6834 36.1306 87.62V74.7758C36.1306 74.7124 36.1496 74.6618 36.1877 74.6238C36.2384 74.5731 36.2955 74.5478 36.3589 74.5478H39.0608C39.1243 74.5478 39.175 74.5731 39.2131 74.6238C39.2638 74.6618 39.2892 74.7124 39.2892 74.7758V85.055C39.2892 85.1183 39.3209 85.15 39.3843 85.15H45.454C45.5175 85.15 45.5682 85.1753 45.6063 85.226C45.657 85.264 45.6824 85.3147 45.6824 85.378V87.62C45.6824 87.6834 45.657 87.7404 45.6063 87.791C45.5682 87.829 45.5175 87.848 45.454 87.848H36.3589Z" fill="#666666"/>
<path d="M66.3472 87.848C66.2076 87.848 66.1188 87.7847 66.0808 87.658L65.5861 85.967C65.5607 85.9163 65.529 85.891 65.4909 85.891H61.1527C61.1146 85.891 61.0829 85.9163 61.0576 85.967L60.5628 87.658C60.5248 87.7847 60.436 87.848 60.2965 87.848H57.3853C57.3092 87.848 57.2521 87.829 57.214 87.791C57.176 87.7404 57.1696 87.6707 57.195 87.582L61.2669 74.7378C61.3049 74.6111 61.3874 74.5478 61.5142 74.5478H65.1104C65.2372 74.5478 65.3197 74.6111 65.3577 74.7378L69.4486 87.582C69.4613 87.6074 69.4677 87.639 69.4677 87.677C69.4677 87.791 69.3979 87.848 69.2584 87.848H66.3472ZM61.8187 83.3449C61.806 83.4209 61.8313 83.4589 61.8948 83.4589H64.7298C64.806 83.4589 64.8313 83.4209 64.806 83.3449L63.3599 78.4618C63.3472 78.4112 63.3282 78.3922 63.3028 78.4048C63.2774 78.4048 63.2584 78.4238 63.2457 78.4618L61.8187 83.3449Z" fill="#666666"/>
<path d="M88.882 74.7758C88.882 74.7124 88.901 74.6618 88.9391 74.6238C88.9898 74.5731 89.0469 74.5478 89.1103 74.5478H91.8122C91.8757 74.5478 91.9264 74.5731 91.9645 74.6238C92.0152 74.6618 92.0406 74.7124 92.0406 74.7758V87.62C92.0406 87.6834 92.0152 87.7404 91.9645 87.791C91.9264 87.829 91.8757 87.848 91.8122 87.848H89.2245C89.0977 87.848 89.0089 87.7974 88.9581 87.696L84.5818 80.4379C84.5564 80.3999 84.5311 80.3872 84.5057 80.3999C84.4803 80.3999 84.4677 80.4252 84.4677 80.4759L84.4867 87.62C84.4867 87.6834 84.4613 87.7404 84.4106 87.791C84.3725 87.829 84.3218 87.848 84.2584 87.848H81.5565C81.493 87.848 81.436 87.829 81.3852 87.791C81.3472 87.7404 81.3281 87.6834 81.3281 87.62V74.7758C81.3281 74.7124 81.3472 74.6618 81.3852 74.6238C81.436 74.5731 81.493 74.5478 81.5565 74.5478H84.1632C84.2901 74.5478 84.3789 74.5984 84.4296 74.6998L88.7869 81.9389C88.8122 81.9769 88.8376 81.9959 88.863 81.9959C88.8884 81.9832 88.901 81.9516 88.901 81.9009L88.882 74.7758Z" fill="#666666"/>
<path d="M109.281 88C108.267 88 107.372 87.8037 106.599 87.411C105.838 87.0184 105.241 86.461 104.81 85.739C104.391 85.017 104.182 84.181 104.182 83.2309V79.1269C104.182 78.1895 104.391 77.3661 104.81 76.6568C105.241 75.9348 105.838 75.3774 106.599 74.9848C107.372 74.5921 108.267 74.3958 109.281 74.3958C110.296 74.3958 111.184 74.5858 111.945 74.9658C112.719 75.3331 113.315 75.8588 113.734 76.5428C114.165 77.2141 114.381 77.9932 114.381 78.8798C114.381 78.9432 114.355 78.9939 114.305 79.0319C114.267 79.0699 114.216 79.0889 114.152 79.0889L111.451 79.2599C111.298 79.2599 111.222 79.1902 111.222 79.0509C111.222 78.4555 111.045 77.9805 110.689 77.6258C110.334 77.2711 109.865 77.0938 109.281 77.0938C108.698 77.0938 108.229 77.2775 107.873 77.6448C107.518 77.9995 107.341 78.4682 107.341 79.0509V83.3639C107.341 83.9466 107.518 84.4153 107.873 84.77C108.229 85.1247 108.698 85.302 109.281 85.302C109.865 85.302 110.334 85.1247 110.689 84.77C111.045 84.4153 111.222 83.9466 111.222 83.3639C111.222 83.2246 111.298 83.1549 111.451 83.1549L114.152 83.2879C114.216 83.2879 114.267 83.3069 114.305 83.3449C114.355 83.3829 114.381 83.4273 114.381 83.4779C114.381 84.3773 114.165 85.169 113.734 85.853C113.315 86.537 112.719 87.069 111.945 87.449C111.184 87.8164 110.296 88 109.281 88Z" fill="#666666"/>
<path d="M133.358 74.7758C133.358 74.7124 133.377 74.6618 133.415 74.6238C133.466 74.5731 133.523 74.5478 133.587 74.5478H136.288C136.352 74.5478 136.403 74.5731 136.441 74.6238C136.491 74.6618 136.517 74.7124 136.517 74.7758V87.62C136.517 87.6834 136.491 87.7404 136.441 87.791C136.403 87.829 136.352 87.848 136.288 87.848H133.587C133.523 87.848 133.466 87.829 133.415 87.791C133.377 87.7404 133.358 87.6834 133.358 87.62V82.5659C133.358 82.5026 133.327 82.4709 133.263 82.4709H129.705C129.642 82.4709 129.61 82.5026 129.61 82.5659V87.62C129.61 87.6834 129.584 87.7404 129.534 87.791C129.496 87.829 129.445 87.848 129.382 87.848H126.68C126.616 87.848 126.559 87.829 126.508 87.791C126.47 87.7404 126.451 87.6834 126.451 87.62V74.7758C126.451 74.7124 126.47 74.6618 126.508 74.6238C126.559 74.5731 126.616 74.5478 126.68 74.5478H129.382C129.445 74.5478 129.496 74.5731 129.534 74.6238C129.584 74.6618 129.61 74.7124 129.61 74.7758V79.6779C129.61 79.7412 129.642 79.7729 129.705 79.7729H133.263C133.327 79.7729 133.358 79.7412 133.358 79.6779V74.7758Z" fill="#666666"/>
<path d="M158.154 77.0178C158.154 77.0811 158.128 77.1381 158.078 77.1888C158.039 77.2268 157.989 77.2458 157.925 77.2458H151.951C151.887 77.2458 151.856 77.2775 151.856 77.3408V79.6779C151.856 79.7412 151.887 79.7729 151.951 79.7729H155.775C155.839 79.7729 155.889 79.7982 155.927 79.8489C155.978 79.8869 156.004 79.9375 156.004 80.0009V82.2239C156.004 82.2873 155.978 82.3443 155.927 82.3949C155.889 82.4329 155.839 82.4519 155.775 82.4519H151.951C151.887 82.4519 151.856 82.4836 151.856 82.5469V85.055C151.856 85.1183 151.887 85.15 151.951 85.15H157.925C157.989 85.15 158.039 85.1753 158.078 85.226C158.128 85.264 158.154 85.3147 158.154 85.378V87.62C158.154 87.6834 158.128 87.7404 158.078 87.791C158.039 87.829 157.989 87.848 157.925 87.848H148.925C148.862 87.848 148.805 87.829 148.754 87.791C148.716 87.7404 148.697 87.6834 148.697 87.62V74.7758C148.697 74.7124 148.716 74.6618 148.754 74.6238C148.805 74.5731 148.862 74.5478 148.925 74.5478H157.925C157.989 74.5478 158.039 74.5731 158.078 74.6238C158.128 74.6618 158.154 74.7124 158.154 74.7758V77.0178Z" fill="#666666"/>
<path d="M174.977 88C173.924 88 173.004 87.8354 172.218 87.506C171.444 87.164 170.841 86.6827 170.41 86.062C169.992 85.4287 169.782 84.7003 169.782 83.877V83.516C169.782 83.4526 169.801 83.4019 169.839 83.3639C169.89 83.3133 169.947 83.2879 170.011 83.2879H172.655C172.719 83.2879 172.77 83.3133 172.808 83.3639C172.858 83.4019 172.884 83.4526 172.884 83.516V83.744C172.884 84.162 173.093 84.5293 173.512 84.846C173.93 85.15 174.495 85.302 175.205 85.302C175.763 85.302 176.175 85.1817 176.442 84.941C176.708 84.7003 176.841 84.4216 176.841 84.105C176.841 83.8516 176.759 83.649 176.594 83.497C176.442 83.3323 176.233 83.1993 175.966 83.0979C175.7 82.9839 175.287 82.8319 174.729 82.6419C174.653 82.6039 174.577 82.5786 174.501 82.5659C174.425 82.5406 174.355 82.5153 174.292 82.4899C173.467 82.2239 172.751 81.9389 172.142 81.6349C171.533 81.3182 171.013 80.8876 170.581 80.3429C170.15 79.7855 169.934 79.1015 169.934 78.2908C169.934 77.5055 170.137 76.8215 170.543 76.2388C170.962 75.6434 171.539 75.1874 172.275 74.8708C173.011 74.5541 173.841 74.3958 174.767 74.3958C175.744 74.3958 176.619 74.5731 177.393 74.9278C178.18 75.2824 178.795 75.7828 179.239 76.4288C179.683 77.0748 179.905 77.8158 179.905 78.6518V78.9178C179.905 78.9812 179.879 79.0382 179.829 79.0889C179.791 79.1269 179.74 79.1459 179.676 79.1459H177.032C176.968 79.1459 176.911 79.1269 176.86 79.0889C176.822 79.0382 176.803 78.9812 176.803 78.9178V78.7848C176.803 78.3415 176.607 77.9488 176.213 77.6068C175.82 77.2648 175.294 77.0938 174.634 77.0938C174.139 77.0938 173.753 77.1951 173.474 77.3978C173.194 77.6005 173.055 77.8855 173.055 78.2528C173.055 78.5315 173.144 78.7658 173.321 78.9559C173.499 79.1332 173.772 79.3042 174.139 79.4689C174.52 79.6209 175.097 79.8235 175.871 80.0769C176.759 80.3809 177.45 80.6469 177.945 80.8749C178.44 81.1029 178.903 81.4766 179.334 81.9959C179.778 82.5026 180 83.1739 180 84.01C180 84.8333 179.791 85.5427 179.372 86.138C178.953 86.7334 178.364 87.1957 177.602 87.525C176.854 87.8417 175.979 88 174.977 88Z" fill="#666666"/>
</svg>
